<svg aria-hidden="true" style="position:absolute;width:0;height:0" xmlns="http://www.w3.org/2000/svg" overflow="hidden"><defs><symbol id="icon-arrow-large" viewBox="0 0 32 32"><path d="M0 0h32v32H0V0z"/></symbol><symbol id="icon-arrow-medium" viewBox="0 0 32 32"><path d="M0 0h32v32H0V0z"/></symbol><symbol id="icon-arrow-small" viewBox="0 0 32 32"><path fill="none" stroke="var(--color1, #d41443)" stroke-linejoin="round" stroke-linecap="round" stroke-width="6.4" d="M6.742 3.2L23.567 16 6.742 28.8"/></symbol><symbol id="icon-burger" viewBox="0 0 32 32"><path fill="none" stroke="var(--color1, #d41443)" stroke-width="1.6" d="M0 6.4h32M0 16h32M0 25.6h32"/></symbol><symbol id="icon-close" viewBox="0 0 32 32"><path fill="none" stroke="var(--color2, #fff)" stroke-width="2" d="M2.519 2l26.963 28M2 29.481L30 2.518"/></symbol><symbol id="icon-commas" viewBox="0 0 32 32"><path fill="var(--color3, #e1e1e1)" d="M23.714 4.148c1.429 0 2.778.385 4.048 1.156s2.302 1.879 3.095 3.324C31.619 10.073 32 11.776 32 13.735s-.476 3.87-1.429 5.733c-.317.674-.889 1.542-1.714 2.602a46.992 46.992 0 01-2.381 2.746l-3 3.035-2.143-3.565a16.303 16.303 0 003.952-3.469c1.143-1.349 1.714-2.586 1.714-3.71 0-.578-.127-1.044-.381-1.397a6.191 6.191 0 01-3.714 1.204c-.984 0-1.921-.305-2.81-.915a6.333 6.333 0 01-2.19-2.313c-.571-.931-.857-1.895-.857-2.891 0-1.124.333-2.2 1-3.228a7.568 7.568 0 012.524-2.505c1.016-.61 2.063-.915 3.143-.915zm-17.095 0c1.429 0 2.778.385 4.048 1.156s2.302 1.879 3.095 3.324c.762 1.445 1.143 3.148 1.143 5.107 0 1.381-.175 2.618-.524 3.71-.349 1.124-.952 2.297-1.81 3.517-.825 1.156-1.603 2.12-2.333 2.891-.73.803-2 2.136-3.81 3.999l-2.143-3.565a16.303 16.303 0 003.952-3.469c1.143-1.349 1.714-2.586 1.714-3.71 0-.578-.127-1.044-.381-1.397a6.191 6.191 0 01-3.714 1.204c-.984 0-1.921-.305-2.81-.915a6.333 6.333 0 01-2.19-2.313c-.571-.931-.857-1.895-.857-2.891 0-1.124.317-2.2.952-3.228s1.476-1.863 2.524-2.505c1.016-.61 2.063-.915 3.143-.915z"/></symbol><symbol id="icon-dots4px" viewBox="0 0 32 32"><path fill="var(--color4, #c7133e)" d="M18 16a2 2 0 11-3.999.001A2 2 0 0118 16zM4 16a2 2 0 11-3.999.001A2 2 0 014 16zM32 16a2 2 0 11-3.999.001A2 2 0 0132 16z"/></symbol><symbol id="icon-dots6px" viewBox="0 0 32 32"><path fill="var(--color2, #fff)" d="M19.692 16a3.692 3.692 0 11-7.384 0 3.692 3.692 0 017.384 0zM7.385 16a3.692 3.692 0 11-7.384 0 3.692 3.692 0 017.384 0zM32 16a3.692 3.692 0 11-7.384 0A3.692 3.692 0 0132 16z"/></symbol><symbol id="icon-ellipse12px" viewBox="0 0 32 32"><path fill="var(--color5, #d9d9d9)" d="M30.511 16c0 8.157-6.612 14.769-14.769 14.769S.973 24.157.973 16 7.585 1.231 15.742 1.231 30.511 7.843 30.511 16z"/></symbol><symbol id="icon-ellipse16px" viewBox="0 0 32 32"><path fill="var(--color2, #fff)" d="M0 16c0 8.837 7.163 16 16 16s16-7.163 16-16S24.837 0 16 0 0 7.163 0 16z"/></symbol><symbol id="icon-facebook" viewBox="0 0 32 32"><path fill="var(--color6, #fea5bb)" d="M15.972 31.515c8.569 0 15.515-6.946 15.515-15.515S24.541.485 15.972.485.457 7.431.457 16s6.946 15.515 15.515 15.515z"/><path fill="var(--color2, #fff)" d="M20.282 15.982h-2.531v9.327h-3.835v-9.327h-1.824v-3.278h1.824v-2.121c0-1.517.716-3.892 3.869-3.892l2.841.012v3.182h-2.061c-.338 0-.813.17-.813.893v1.929h2.866l-.335 3.275z"/></symbol><symbol id="icon-github" viewBox="0 0 32 32"><path fill="var(--color6, #fea5bb)" d="M32 16c0 8.837-7.163 16-16 16S0 24.837 0 16 7.163 0 16 0s16 7.163 16 16z"/><path fill="var(--color2, #fff)" d="M16 6.588c-5.169 0-9.412 4.242-9.412 9.412 0 4.411 3.095 8.419 7.206 9.412v-3.114a2.307 2.307 0 01-1.197-.03c-.556-.164-1.008-.535-1.344-1.1-.214-.361-.593-.752-.988-.723l-.097-1.099c.855-.073 1.595.521 2.034 1.258.195.328.419.52.708.605.278.082.577.043.926-.081.088-.698.407-.959.649-1.326v-.001c-2.451-.366-3.428-1.666-3.816-2.693-.514-1.363-.238-3.066.671-4.142.018-.021.05-.076.037-.114-.417-1.258.091-2.3.11-2.41.481.142.559-.143 2.088.786l.264.159c.111.066.076.028.186.02A7.984 7.984 0 0116 11.129a8.016 8.016 0 012.002.285l.086.009c-.008-.001.023-.005.075-.036 1.911-1.157 1.842-.779 2.354-.946.018.111.519 1.169.107 2.411-.056.171 1.657 1.739.708 4.256-.388 1.027-1.365 2.328-3.816 2.693v.001c.314.479.692.734.69 1.722v3.887c4.111-.993 7.206-5 7.206-9.412 0-5.169-4.242-9.412-9.412-9.412z"/></symbol><symbol id="icon-home" viewBox="0 0 32 32"><path fill="var(--color7, #d31342)" d="M30.129 15.447c.553-.6.5-1.52-.119-2.054L16.374 1.623c-.619-.534-1.611-.523-2.217.025L.475 14.02a1.414 1.414 0 00-.066 2.051l.343.352c.569.584 1.489.654 2.053.155l1.023-.903v13.224c0 .811.667 1.468 1.488 1.468h5.333c.822 0 1.488-.657 1.488-1.468v-9.252h6.803v9.252c-.012.811.576 1.468 1.398 1.468h5.652c.822 0 1.488-.657 1.488-1.468V15.861l.631.546c.349.302 1.078.06 1.631-.541l.388-.42z"/></symbol><symbol id="icon-icecream1" viewBox="0 0 21 32"><path d="M0 0h21.12v32H0V0z"/></symbol><symbol id="icon-icecream2" viewBox="0 0 32 32"><path d="M0 0h32v32H0V0z"/></symbol><symbol id="icon-icecream3" viewBox="0 0 28 32"><path d="M0 0h28.16v32H0V0z"/></symbol><symbol id="icon-telegram" viewBox="0 0 32 32"><path fill="var(--color6, #fea5bb)" d="M31.258 16c0 8.569-6.946 15.515-15.515 15.515S.228 24.569.228 16 7.174.485 15.743.485 31.258 7.431 31.258 16z"/><path fill="var(--color2, #fff)" d="M12.705 18.303l-.308 4.043c.441 0 .631-.177.86-.389l2.066-1.843 4.281 2.926c.785.408 1.338.193 1.55-.674l2.811-12.289c.249-1.083-.42-1.507-1.185-1.241L6.264 14.738c-1.127.408-1.11.995-.192 1.261l4.223 1.226 9.808-5.728c.462-.285.881-.127.536.158l-7.934 6.649z"/></symbol></defs></svg>