<svg aria-hidden="true" style="position: absolute; width: 0; height: 0; overflow: hidden;" version="1.1" xmlns="http://www.w3.org/2000/svg" xmlns:xlink="http://www.w3.org/1999/xlink">
<defs>
<symbol id="icon-cat" viewBox="0 0 32 32">
<path fill="#454040" style="fill: var(--color1, #454040)" d="M25.921 26.654c0 0.119 0.094 0.215 0.213 0.223 1.689 0.11 3.079 1.523 3.079 3.25v0.251c0 0.352-0.285 0.637-0.637 0.637h-14.476c-4.862 0-8.804-3.976-8.804-8.882s3.942-8.882 8.804-8.882h6.871c0.094 0 0.187-0.021 0.272-0.061l5.1-2.405c0.299-0.141 0.655-0.030 0.821 0.255l2.242 3.474c-0.025 2.675-1.062 5.174-2.869 7.005-0.399 0.405-0.624 0.95-0.623 1.518l0.009 3.831z"></path>
<path fill="#2d2211" style="fill: var(--color2, #2d2211)" d="M26.535 21.52c1.807-1.831 2.844-4.33 2.869-7.005l-2.242-3.474c-0.166-0.285-0.523-0.396-0.821-0.255l-5.1 2.405c-0.085 0.040-0.178 0.061-0.272 0.061h-5.571v17.763h13.177c0.352 0 0.637-0.285 0.637-0.637v-0.251c0-1.727-1.39-3.14-3.079-3.25-0.119-0.008-0.212-0.104-0.213-0.223l0 0.216-0.009-3.831c-0.001-0.568 0.223-1.113 0.623-1.518z"></path>
<path fill="#454040" style="fill: var(--color1, #454040)" d="M1.57 23.901c-1.013-1.11-1.57-2.605-1.57-4.21v-6.513c0-2.512 2.030-4.556 4.524-4.556 1.429 0 2.592-1.177 2.592-2.623v-2.6c0-0.52 0.4-0.968 0.919-0.992 0.555-0.026 1.013 0.416 1.013 0.965v2.627c0 2.512-2.030 4.556-4.524 4.556-1.429 0-2.592 1.177-2.592 2.624v6.513c0 1.122 0.378 2.155 1.065 2.908 0.692 0.758 1.615 1.159 2.671 1.159 0.837 0 1.425 1.064 0.486 1.913-1.778 0.143-3.425-0.499-4.584-1.77z"></path>
<path fill="#1e1205" style="fill: var(--color3, #1e1205)" d="M21.057 1.379c-0.384-0.424-1.089-0.153-1.089 0.42v7.9c0 3.352 2.693 6.069 6.016 6.069s6.016-2.717 6.016-6.069v-8.087c0-0.571-0.701-0.843-1.087-0.422l-2.276 2.484c-0.709 0.774-1.707 1.215-2.752 1.215-1.053 0-2.058-0.447-2.768-1.232z"></path>
<path fill="#ffd400" style="fill: var(--color4, #ffd400)" d="M24.455 8.417c0 0.523-0.42 0.947-0.939 0.947s-0.939-0.424-0.939-0.947c0-0.523 0.42-0.947 0.939-0.947s0.939 0.424 0.939 0.947z"></path>
<path fill="#ffa100" style="fill: var(--color5, #ffa100)" d="M29.39 8.417c0 0.523-0.42 0.947-0.939 0.947s-0.939-0.424-0.939-0.947c0-0.523 0.42-0.947 0.939-0.947s0.939 0.424 0.939 0.947z"></path>
<path fill="#454045" style="fill: var(--color6, #454045)" d="M18.693 23.072c0-2.456-1.973-4.446-4.407-4.446h-8.277c-0.459 1.076-0.713 2.261-0.713 3.507 0 4.905 3.942 8.882 8.804 8.882h4.594v-7.942z"></path>
<path fill="#454040" style="fill: var(--color1, #454040)" d="M15.398 18.77v12.245h3.294v-7.942c0-2.068-1.399-3.805-3.294-4.303z"></path>
</symbol>
<symbol id="icon-paw" viewBox="0 0 32 32">
<path d="M17.604 27.405c0.142-0.96 0.58-1.849 1.272-2.529 0.010-0.010 0.021-0.020 0.031-0.031 2.54-2.54 1.929-7.267-1.363-10.56s-8.020-3.903-10.56-1.363c-0.011 0.011-0.023 0.023-0.034 0.034-0.679 0.692-1.568 1.129-2.527 1.271-1.079 0.16-2.117 0.66-2.942 1.5-1.97 2.006-1.976 5.257-0.014 7.27 0.473 0.485 1.017 0.858 1.599 1.118 2.072 0.927 3.721 2.576 4.648 4.648 0.26 0.582 0.633 1.126 1.118 1.599 2.013 1.963 5.265 1.957 7.271-0.014 0.84-0.825 1.34-1.864 1.499-2.944z"></path>
<path d="M23.203 1.047c1.39 1.39 1.096 3.937-0.657 5.69s-4.3 2.047-5.69 0.657c-1.39-1.39-1.096-3.937 0.657-5.69s4.3-2.047 5.69-0.657z"></path>
<path d="M9.829 1.552c1.39 1.39 1.096 3.937-0.657 5.69s-4.3 2.047-5.69 0.657c-1.39-1.39-1.096-3.937 0.657-5.69s4.3-2.047 5.69-0.657z"></path>
<path d="M31.118 8.964c1.39 1.39 1.096 3.937-0.657 5.69s-4.3 2.047-5.69 0.657c-1.39-1.39-1.096-3.937 0.657-5.69s4.3-2.047 5.69-0.657z"></path>
<path d="M30.447 22.175c1.39 1.39 1.096 3.937-0.657 5.69s-4.3 2.047-5.69 0.657c-1.39-1.39-1.096-3.937 0.657-5.69s4.3-2.047 5.69-0.657z"></path>
</symbol>
</defs>
</svg>
